<?xml version="1.0" encoding="utf-8"?>
<!-- Generator: Adobe Illustrator 22.1.0, SVG Export Plug-In . SVG Version: 6.00 Build 0)  -->
<svg version="1.1" xmlns="http://www.w3.org/2000/svg" xmlns:xlink="http://www.w3.org/1999/xlink" x="0px" y="0px"
	 viewBox="0 0 320 320" style="enable-background:new 0 0 320 320;" xml:space="preserve">
<style type="text/css">
	.st0{fill:#231F20;}
	.st1{fill:none;stroke:#231F20;stroke-width:4;stroke-linecap:round;stroke-linejoin:round;stroke-miterlimit:10;}
	.st2{fill:#FFFFFF;stroke:#231F20;stroke-width:5;stroke-linecap:round;stroke-linejoin:round;stroke-miterlimit:10;}
	.st3{fill:#FFFFFF;}
	.st4{fill:none;stroke:#231F20;stroke-width:5;stroke-linecap:round;stroke-linejoin:round;stroke-miterlimit:10;}
	.st5{fill:#FF8D83;}
	.st6{fill:#E6E6E6;}
	.st7{fill:none;stroke:#231F20;stroke-width:3.5;stroke-linecap:round;stroke-linejoin:round;stroke-miterlimit:10;}
	.st8{fill:none;stroke:#000000;stroke-width:4;stroke-linecap:round;stroke-linejoin:round;stroke-miterlimit:10;}
	.st9{fill:#171818;}
	.st10{fill:none;stroke:#000000;stroke-width:6;stroke-linecap:round;stroke-linejoin:round;stroke-miterlimit:10;}
	.st11{opacity:0.2;}
	.st12{clip-path:url(#SVGID_2_);}
	.st13{clip-path:url(#SVGID_4_);fill:#171818;}
	.st14{clip-path:url(#SVGID_6_);}
	.st15{clip-path:url(#SVGID_8_);fill:#171818;}
	.st16{fill:#FFFFFF;stroke:#000000;stroke-width:5;stroke-linecap:round;stroke-linejoin:round;stroke-miterlimit:10;}
	.st17{fill:none;stroke:#000000;stroke-width:5;stroke-linecap:round;stroke-linejoin:round;stroke-miterlimit:10;}
	.st18{fill:#1D2C30;}
	.st19{fill:none;stroke:#000000;stroke-width:3.5;stroke-linecap:round;stroke-linejoin:round;stroke-miterlimit:10;}
	.st20{stroke:#000000;stroke-width:4;stroke-linecap:round;stroke-linejoin:round;stroke-miterlimit:10;}
	.st21{fill:#FFFFFF;stroke:#000000;stroke-width:4;stroke-linecap:round;stroke-linejoin:round;stroke-miterlimit:10;}
	.st22{fill:#FFFFFF;stroke:#000000;stroke-width:7;stroke-linecap:round;stroke-linejoin:round;stroke-miterlimit:10;}
	.st23{fill:#FFFFFF;stroke:#000000;stroke-width:5.5;stroke-linecap:round;stroke-linejoin:round;stroke-miterlimit:10;}
	.st24{fill:#181818;}
	.st25{opacity:0.2;fill:#E83828;}
	.st26{fill:#FFFFFF;stroke:#000000;stroke-width:6;stroke-linecap:round;stroke-linejoin:round;stroke-miterlimit:10;}
	.st27{fill:none;stroke:#363437;stroke-width:8;stroke-linecap:round;stroke-linejoin:round;stroke-miterlimit:10;}
	.st28{fill:#363437;stroke:#363437;stroke-width:8;stroke-linecap:round;stroke-linejoin:round;stroke-miterlimit:10;}
	.st29{fill:#414244;}
	.st30{opacity:0.3;fill:none;stroke:#C9CACA;stroke-width:9;stroke-linecap:round;stroke-linejoin:round;stroke-miterlimit:10;}
	.st31{fill:none;}
	.st32{fill:none;stroke:#363437;stroke-width:7;stroke-linecap:round;stroke-linejoin:round;stroke-miterlimit:10;}
	.st33{fill:#363437;}
	.st34{fill:none;stroke:#363437;stroke-width:6;stroke-linecap:round;stroke-linejoin:round;stroke-miterlimit:10;}
	.st35{fill:#F2A7AE;}
	.st36{fill:#FFFFFF;stroke:#363437;stroke-width:8;stroke-linecap:round;stroke-linejoin:round;stroke-miterlimit:10;}
	.st37{stroke:#000000;stroke-width:6;stroke-linecap:round;stroke-linejoin:round;stroke-miterlimit:10;}
	.st38{fill:#221E1F;}
	.st39{fill:none;stroke:#221E1F;stroke-width:5;stroke-linecap:round;stroke-linejoin:round;stroke-miterlimit:10;}
	.st40{fill:#35A863;stroke:#000000;stroke-width:6;stroke-linecap:round;stroke-linejoin:round;stroke-miterlimit:10;}
	.st41{fill:#F0CDA4;stroke:#000000;stroke-width:5.5;stroke-linecap:round;stroke-linejoin:round;stroke-miterlimit:10;}
	.st42{fill:#FAEBD9;stroke:#000000;stroke-width:6;stroke-linecap:round;stroke-linejoin:round;stroke-miterlimit:10;}
	.st43{clip-path:url(#XMLID_9_);fill:#F0CDA4;}
	.st44{fill:#F5DCBE;}
	.st45{fill:#E5E2CC;stroke:#000000;stroke-width:6;stroke-linecap:round;stroke-linejoin:round;stroke-miterlimit:10;}
	.st46{fill:#FAEBD9;}
	.st47{fill:#FAEBD9;stroke:#000000;stroke-width:4;stroke-linecap:round;stroke-linejoin:round;stroke-miterlimit:10;}
	.st48{fill:#F7F0CB;}
</style>
<g id="過程">
</g>
<g id="圖層_8">
	<g>
		<g>
		</g>
		<path class="st28" d="M281.9,256.6c0,7.8-36.1,18.8-81.3,18.8c-45.3,0-80.4-19.4-80.4-27.2c0-7.8,35.2-1,80.4-1
			C245.9,247.2,281.9,248.8,281.9,256.6z"/>
		<ellipse class="st3" cx="161.9" cy="179.8" rx="94.7" ry="89.4"/>
		<path class="st33" d="M280.1,251c0.9-0.8,1.3-2.1,0.5-3.5c-3.7-6.8-5.6-14.3-7.8-21.6c-1.2-4.1-2.2-8.2-3.6-12.2
			c-1.2-3.3-2.8-6.3-3.6-9.6c2.2-1.3,2.9-4.2,3.2-7.6c0.7-7.7,1.2-15.4,2.1-23.2c0.6-5,2-11,0.2-16c1.7-2.9,2.6-6.2,2.6-9.7
			c0-0.2,0-0.4,0-0.7c0.2-0.5,0.3-0.9,0.5-1.4c2.2-3.1,3.4-6.9,3.4-11c0-3.9-1.2-7.6-3.3-10.7c2-3.1,3.3-6.7,3.3-10.6
			c0-5.3-2.2-10.2-5.8-13.8c0.2-1,0.3-2,0.3-3c0-4.4-1.5-8.5-4.1-11.8c-0.7-3.9-2.5-7.8-5.2-11.1c-12.5-15.7-27.9-29.5-48.3-31.5
			C202,24.5,180.2,11,158.7,10.4c-11-1.8-21.2,1.1-31.4,5.4c-1.6,0.7-3.2,1.4-4.7,2.1c3.8-1.7-2.8,0.9-3.5,1.1
			c-4.9,1.7-9.7,3.5-14.5,5.5c-8.6,3.7-14.7,9.6-21.4,15.9c-1.4,1.3-2.6,2.9-3.4,4.5c-0.6,0.4-1.1,0.8-1.6,1.2
			C70.5,52,64.4,59.1,60.5,68c-3.6,8.2-5.8,16.5-8.3,25.1c-0.8,2.9-0.9,5.8-0.4,8.6c-1.8,2.1-3.2,4.6-4,7.3c-2,6.5-4,13.8-3.8,20.7
			c0.1,3.6,1,7.1,2.6,10.2c-0.5,1.7-0.8,3.5-0.7,5.3c0.1,7.1,1.5,14.1,3,21c0.3,1.3,0.7,2.6,1.3,3.7c1.5,14.7,5.7,29.1,8.4,43.6
			c0.3,1.5,0.5,3.2,0.7,4.9c-0.7,0.5-1.2,1.2-1.2,2.4c0.2,12.6-5.2,24.2-8,36.3c-2.5,10.7-1.9,20.4,3.9,29.9c2.6,4.2,6,5,9.7,8.2
			c2.6,2.3,7.2,2,10.9,2c1.4,0,2.7,6,3.5,4.9c1.8-2.5,3.3-5,5.5-7.1c4.8-4.7,8.4-10.4,13.1-15.2c9.1-9.2,21.4-11.6,33.6-13.5
			c4.7-0.7,9.4-1.4,12.9-4.9c2.7-2.7,2.7-7,1-10.2c-1.5-2.9-5.2-4.2-8-5.1c-4.6-1.4-9.3-2.5-13.9-4c-3.5-1.2-7.1-2.6-10.6-4.2
			c-0.2-0.3-0.4-0.5-0.7-0.7c-6.2-4.3-11.8-9.3-16.9-14.8c0.4-1.4,0.5-3.1,0.1-5c-1.3-6.8-5.3-13-7.1-19.8c-2-7.8-4.1-16-4.6-24.1
			c1.4-1.8,2.5-3.8,3.3-5.9c-1-4.7-1.4-10.8-0.2-15.9c-0.2-0.8-0.3-1.6-0.5-2.4c0.4,0,0.8,0,1.2,0c1.7-4.5,5.5-4.4,11.4-4.4
			c2.9,0,5.1-2.7,7.7-1.5c5.9-0.4,11.7-1.7,17.5-3.1c9.9-2.5,19.8-5,29.9-6.9c10-1.9,20.1-3.5,30-5.8c3.3-0.9,6.6-1.9,9.8-3.1
			c4.2-3.5,9-6.2,13.8-6.2c3,0,3.6,2,3,4.7c0.3,0.1,0.6,0.3,1,0.4c0.8,3.3,2.9,6.2,4.6,9.2c3,5.2,5.8,10.4,9.3,15.3
			c2.9,4.1,6.1,8,9.2,11.9c3.5,4.3,8.2,4.3,13,5.9c0.3,0.1,0.6,0.1,0.9,0.1c1.1,0.4,2.3,0.8,3.5,1c-0.5,3.2,0,6.5-0.6,9.7
			c-0.5,2.8-1.6,5.2-3.1,7.6c-2.1,3.3-4,4.2-7.7,4.3c-7.6,0.4-7.3,8-6,13.9c0,0.1,0.1,0.2,0.1,0.3c-0.7,3.2-1.1,6.5-2,9.6
			c-0.7,0.1-1.4,0.5-1.9,1.5c-1.9,4.2-4.7,7.6-7.6,11.2c-2.1,2.5-4,5.2-6.1,7.8c-0.3,0-0.6,0.1-1,0.2c-3.1,1.3-5.6,3.6-8.8,4.9
			c-3.8,1.5-7.6,2.8-11.5,3.9c-5.3,1.5-14.2,1.7-17.9,6.5c-2.3,2.9-1.6,8.3,1.9,9.7c-0.5,1.7-0.5,3.6-0.1,5.1
			c1.5,5.6,6.8,7.6,12,6.8c11.8-1.7,24.2,3.8,32.2,12.3c5.2,5.5,8.7,11.6,16.3,14.3c6.9,2.5,13.8,0.8,20.8,1.7
			c2.6,0.4,5.1,0.1,7.3-1c1.4,0.4,3.1,0,5-1.6c4.8-3.9,7.1-7.3,9.6-13c2-4.5,3.6-9.1,2.7-13.7C288.4,264.3,283.7,256.4,280.1,251z"
			/>
		<path class="st27" d="M242.5,297.8c17.7,4.9,35.1,0.5,40.7-17.6c11.1-35.7-22.8-43.3-13.6-101.3c30.2-133.2-54.5-138.9-54.5-138.9
			l-0.1-0.8c0,0-30.3-48.1-98.3-21.3c-58.9,23.2-88.3,96.1-60.9,194.6c6.7,24.2-8.4,28.3-8.4,57.3c0,16.4,13,30.1,32.3,27.6"/>
		<path class="st31" d="M83,148.1v6.6c-0.1,30.5-0.9,53,17.3,70.4c12.1,11.6,36.5,23.4,59.7,23.4c23.3,0,47.6-11.9,59.7-23.4
			c16.5-15.8,17.4-35.8,17.4-62.1"/>
		<path class="st32" d="M83,142.7v12c-0.1,30.5-0.9,53,17.3,70.4c12.1,11.6,36.5,23.4,59.7,23.4c23.3,0,47.6-11.9,59.7-23.4
			c16.5-15.8,17.4-35.8,17.4-62.1"/>
		<path class="st27" d="M211,99.4c-1.4,19.8,10.6,53.1,28.3,59"/>
		<g>
			<path class="st3" d="M252.8,275.8c-2.7,0.5-0.4-6.8-1.7-15.2c-1.3-8.5-5.5-16.2-2.8-16.8c2.7-0.5,8.7,9.3,9.9,17.8
				C259.6,270.1,255.6,275.3,252.8,275.8"/>
			<path class="st3" d="M268.1,274.1c-2.6,0.6-1.4-6.1-2.6-12.3c-1.2-6.2-4.3-10.6-1.7-11.3c2.6-0.6,7.2,4.2,8.9,12.3
				C274.1,269.1,270.7,273.5,268.1,274.1"/>
		</g>
		<g>
			<path class="st3" d="M71.2,275.1c2.8-0.1-1.2-6.7-2.1-15.2c-0.8-8.5,1.4-17.1-1.4-16.9c-2.8,0.2-6.1,11.2-5.3,19.7
				C63.3,271.3,68.4,275.3,71.2,275.1"/>
			<path class="st3" d="M84.6,268.5c2.7,0-0.1-6.2-0.5-12.6c-0.3-6.4,1.6-11.4-1.1-11.4c-2.7,0-5.9,5.8-5.7,14.1
				C77.5,265.1,81.9,268.6,84.6,268.5"/>
		</g>
		<g>
			<path class="st3" d="M181.4,106.3c-2.3-1.3,3-5.4,6.3-10.9c3.3-5.5,4-10.8,6.3-9.5c2.3,1.3,2.5,7.9-1.6,15.1
				C189.2,106.6,183.8,107.6,181.4,106.3"/>
			<path class="st3" d="M241.9,122.5c3.2-1-4-6.5-7-13.9c-3-7.4-1.4-15-4.7-14c-3.3,1.1-4.9,9.2-1.2,18.9
				C231.9,121,238.7,123.5,241.9,122.5"/>
			<path class="st3" d="M141.7,107c-1.6-1.5,6.6-6,14.6-13.4c8-7.4,12.9-14.6,14.5-13.1c1.6,1.6-2.2,12.6-12.8,21.6
				C149.8,109.2,143.3,108.5,141.7,107"/>
			<path class="st3" d="M127.2,79.1c0.6,1.8-8.6,5.9-16.5,12.4C96.5,103,86,118.4,83.9,117.7c-4.1-1.2,5.8-22.3,26.7-35.3
				C119.4,76.8,126.5,76.7,127.2,79.1z"/>
			<path class="st3" d="M109.2,112c-1.4-1.7,5.5-4.8,14.2-11.4c11-8.4,25.8-23.3,27.2-21.6c2.3,2.8-9.4,18.4-22.4,27.5
				C119.2,112.7,110.6,113.7,109.2,112"/>
		</g>
		<path class="st34" d="M238.2,159.4c0,0,25.4-2.8,11.1,21.9c-3.1,5.3-12.5,6-12.5,6"/>
		<path class="st36" d="M246.9,307.9c-7.4-32.9-34-46.6-70.5-46.6h-30.6c-36.5,0-63.1,13.7-70.5,46.6"/>
		<g>
			<defs>
				<path id="XMLID_8_" d="M174.5,247.2c-4.8,0.9-9.6,1.4-14.4,1.4c-4.8,0-9.6-0.5-14.4-1.4c-0.1,5.7-0.5,12.2-5.6,14.6
					c0,0,3.3,11,20.1,11c16.8,0,20.1-11,20.1-11C175,259.4,174.6,252.8,174.5,247.2z"/>
			</defs>
			<use xlink:href="#XMLID_8_"  style="overflow:visible;fill:#FFFFFF;"/>
			<clipPath id="XMLID_4_">
				<use xlink:href="#XMLID_8_"  style="overflow:visible;"/>
			</clipPath>
			
				<use xlink:href="#XMLID_8_"  style="overflow:visible;fill:none;stroke:#363437;stroke-width:7;stroke-linecap:round;stroke-linejoin:round;stroke-miterlimit:10;"/>
		</g>
		<g>
			<path class="st33" d="M118.4,162.9c-6.5-0.2-10,4.7-10.3,11.8c-0.3,7.1,4.7,13.4,11.2,13.6c6.5,0.2,9.9-5.8,10.2-12.9
				C129.8,168.4,124.8,163.1,118.4,162.9"/>
			<path class="st33" d="M119.7,161c7.1,0.6,13.7,5.7,12.8,8.3c-0.6,1.8-5.8-0.6-12.9-1.3c-7.1-0.6-12.4,1.4-12.8-0.4
				C105.9,163.9,112.6,160.3,119.7,161"/>
			<path class="st3" d="M130.7,171.7c-0.1,2.1-1.6,3.8-4.5,3.8c-2.9-0.1-5.2-2-5.2-4.1c0.1-2.1,1.7-3.5,4.6-3.5
				C128.5,168,130.8,169.6,130.7,171.7"/>
		</g>
		<g>
			<path class="st33" d="M199.2,162.9c-6.5-0.2-10,4.7-10.3,11.8c-0.3,7.1,4.7,13.4,11.2,13.6c6.5,0.2,9.9-5.8,10.2-12.9
				C210.6,168.4,205.7,163.1,199.2,162.9"/>
			<path class="st33" d="M200.5,161c7.1,0.6,13.7,5.7,12.8,8.3c-0.6,1.8-5.8-0.6-12.9-1.3c-7.1-0.6-12.4,1.4-12.8-0.4
				C186.8,163.9,193.4,160.3,200.5,161"/>
			<path class="st3" d="M211.5,171.7c-0.1,2.1-1.6,3.8-4.5,3.8c-2.9-0.1-5.2-2-5.2-4.1c0.1-2.1,1.7-3.5,4.6-3.5
				C209.4,168,211.6,169.6,211.5,171.7"/>
		</g>
		<path class="st33" d="M205.7,148.6c-7.6,0-16.9,3.9-16.2,6.2c0.4,1.6,7.9-0.3,15.6-0.2c7.6,0,13,2.2,13.7,0.7
			C220,152.2,213.3,148.6,205.7,148.6"/>
		<path class="st33" d="M114.4,148.6c7.6,0,16.9,3.9,16.2,6.2c-0.4,1.6-7.9-0.3-15.6-0.2c-7.6,0-13,2.2-13.7,0.7
			C100.1,152.2,106.8,148.6,114.4,148.6"/>
		<path class="st33" d="M160.1,199.1c12.1,0.1,18.8,1.8,18.8,4.9c-0.3,6.8-6.6,12.8-18.8,13.1c-12.2-0.3-18.5-6.3-18.8-13.1
			C141.2,200.9,147.9,199.2,160.1,199.1z"/>
		<path class="st33" d="M166.1,186.3c0,1.6-2.7,1.6-6.1,1.6c-3.3,0-6.1,0-6.1-1.6c0-1.6,2.7-3.2,6.1-3.2
			C163.4,183.1,166.1,184.8,166.1,186.3z"/>
		<g>
			<g>
				<path class="st35" d="M117.2,196.3c0,1.6-3.4,1.6-7.5,1.6c-4.1,0-7.5,0-7.5-1.6c0-1.6,3.4-3.2,7.5-3.2
					C113.9,193.1,117.2,194.8,117.2,196.3z"/>
				<path class="st35" d="M219.9,196.3c0,1.6-3.4,1.6-7.5,1.6c-4.1,0-7.5,0-7.5-1.6c0-1.6,3.4-3.2,7.5-3.2
					C216.5,193.1,219.9,194.8,219.9,196.3z"/>
			</g>
		</g>
		<path class="st27" d="M143.6,129.2c41.6,5.5,64-10.6,67.3-29.8"/>
		<path class="st27" d="M80.7,140.7c13.9,2.6,40.9,2.2,70.1-16.2c6.5-4.1,7.5-4.7,14.5-10.4"/>
	</g>
	<path class="st33" d="M107.4,306.9c0,0,0-0.1,0-0.1h105.5c0,0,0,0.1,0,0.1h8.1c-3.7-36-21.1-47.1-21.9-47.6
		c-1.9-1.2-4.3-0.6-5.5,1.3c-0.3,0.5-0.5,1-0.6,1.6c-3.6-2-8.4-2.1-11.9-0.1c-6.6,3.9-13.4,7.8-20.9,9.7c-6.1,1.5-10.2-2.3-16.1-2.7
		c-1.8-6-10.7-8.3-16.9-6.3c0-0.7-0.2-1.5-0.6-2.1c-1.2-1.9-3.6-2.5-5.5-1.3c-0.8,0.5-18.1,11.6-21.9,47.6H107.4z"/>
</g>
</svg>
