<?xml version="1.0" encoding="utf-8"?>
<!-- Generator: Adobe Illustrator 22.0.1, SVG Export Plug-In . SVG Version: 6.00 Build 0)  -->
<svg version="1.1" id="圖層_1" xmlns="http://www.w3.org/2000/svg" xmlns:xlink="http://www.w3.org/1999/xlink" x="0px" y="0px"
	 viewBox="0 0 100 60" style="enable-background:new 0 0 100 60;" xml:space="preserve">
<style type="text/css">
	.st0{fill:none;}
</style>
<path d="M14.4,24.5c-0.7,0-1.3,0.1-2.2,0.1c-0.3,0-0.5,0.2-0.5,0.5v11c0,0.5,0,1.1,0,1.6c0,1.3-0.5,2-1.9,2c-2,0-1.9-1.4-1.9-2.9
	C8,35.7,8,35.7,8,34.5v-9.8c0-0.3-0.2-0.5-0.5-0.5c-0.6,0-0.4,0.1-1.1,0.1c-0.8,0-3.3,0-3.3-1.2s1.1-1.4,2-1.4c1.9,0,3-0.1,4.9-0.1
	c1.2,0,6.4-0.3,6.4,1.7C16.4,24.1,15.2,24.5,14.4,24.5z"/>
<path d="M19.7,27.1c0.1-0.7,0.9-1,1.6-1c0.9,0,2,0.4,2,1.4c0,1.9-0.2,3.5-0.2,5.4c0,0.6-0.2,1.6,0.1,2.1c0.1,0.1,0.1,0.3,0.1,0.4
	c0,0.2-0.1,0.4-0.1,0.6c-0.3,0.8-1,1.1-1.8,1.1c-1.6,0-2-0.9-2-2.3c0-0.4,0-0.7,0-1.1C19.3,31.7,19.2,29.4,19.7,27.1z"/>
<path d="M19.5,22.8c0-1,0.9-1.5,1.8-1.5s1.8,0.5,1.8,1.5s-0.9,1.5-1.8,1.5C20.5,24.3,19.5,23.8,19.5,22.8z"/>
<path d="M27.4,24c0.6-1.7,4.4-2.1,5.9-2.1c1,0,3.5,0.1,3.5,1.6c0,0.8-1,1.2-1.7,1.2c-0.5,0-1.1-0.1-1.6-0.1c-0.7,0-1.9,0.1-2.5,0.3
	c-0.3,0.1-0.5,2.6-0.5,2.9c0,0.2,0.1,0.4,0.4,0.4c0.5,0,1.8-0.6,2.9-0.6c0.9,0,2,0.4,2,1.5c0,1.5-4,1.4-5.1,2
	c-0.2,0.1-0.3,0.4-0.3,0.6c0,0.5,0.1,2.2,0.4,2.5s0.3,0.6,0.3,1c0,0.6,0.1,1.1,0.1,1.7c0,1.2-0.7,1.9-1.9,1.9c-1.1,0-1.7-0.6-2-1.6
	c-0.5-2.5-0.6-5-0.6-7.5C26.7,28,26.9,25.8,27.4,24z"/>
<path d="M50.9,30.3c-0.6-2.2-1.6-4.2-2.1-6.4c-0.2-0.9-1-1.6-1.9-1.6c-0.4,0-0.9,0.1-1.2,0.3c-2.2,1.6-3.9,6-4.9,9.1
	c-0.1,0.4-0.5,0.6-0.5,1.1c0,0.2,0.1,0.4,0.1,0.6c0,0.7-0.4,1.5-0.4,2.2c0,1,1.1,1.3,1.9,1.3c1.7,0,1.8-1.3,2.1-2.6
	c0.1-0.3,0-0.3,0.4-0.3c0.9-0.1,1.7-0.1,2.6-0.3c0.3,0,0.7-0.1,1-0.1c0.2,0,0.4,1.3,0.4,1.5c0.2,1.4,0,2.5,2,2.5
	c0.8,0,1.9-0.4,1.9-1.3C52.1,34.3,51.4,32.3,50.9,30.3z M46.8,31.1c-0.6,0.1-1.2,0.2-1.8,0.2c-0.1,0-0.2-0.1-0.2-0.2
	c0-0.5,1.3-3.7,1.5-3.7c0.1,0,0.1,0.2,0.2,0.2c0.1,0.4,0.8,2.8,0.8,3C47.3,30.9,47.1,31.1,46.8,31.1z"/>
<path d="M71.4,21.9c0.7,0,1.8,0.4,1.8,1.3c0,0.8-1,1.3-1.5,1.8c-1.1,1.3-2.1,2.7-3.1,4.1c-0.2,0.3-0.7,0.6-0.7,1.1
	c0,1.7-0.1,3.3-0.1,5c0,0.3,0,0.7,0,1c0.1,0.4,0,0.9,0,1.3c0,0.9-1,1.2-1.7,1.2c-1.8,0-2-1.6-2-3.1c0-1.7,0.1-3.5,0.1-5.2
	c0-0.3-0.1-0.7-0.3-0.9c-0.9-1.4-3.4-5.5-3.4-7.1c0-1,1-1.3,1.8-1.3c0.5,0,1.1,0.1,1.5,0.5c0.4,0.3,0.4,0.8,0.6,1.2
	c0.2,0.5,1.5,3.8,2,3.8C66.9,26.5,68.7,21.9,71.4,21.9z"/>
<path d="M77.9,22.9c-0.8,0-1.9-0.4-1.9-1.4s1.1-1.3,1.9-1.3s1.9,0.4,1.9,1.3S78.7,22.9,77.9,22.9z"/>
<path d="M78.2,26.2c0.8,0,1.9,0.4,1.9,1.4c0,4,0.2,5.3,0.2,9.4c0,1-1.1,1.4-1.9,1.4S76.5,38,76.5,37c0-4-0.2-5.3-0.2-9.4
	C76.3,26.6,77.4,26.2,78.2,26.2z"/>
<path d="M94.4,36.7c-1.6,0-2.5-1.6-3.3-2.8c-0.4-0.5-3-4.2-3.2-4.3c-0.1,0-0.1,0.2-0.1,0.3c-0.1,1.7-0.3,3.4-0.3,5.1
	c0,1.1-0.1,2-1.3,2.2c-0.2,0-0.3,0-0.5,0c-1.1,0-1.9-0.5-1.9-1.7s0.1-2.5,0.2-3.7c0.2-2,0.2-4.1,0.2-6.1c0-1.3,0.5-1.9,1.8-1.9
	c2.9,0,5.9,5.8,6.5,6c0.1,0,0.1-0.2,0.1-0.3v-3.8c0-0.5-0.1-1-0.1-1.4c0-1.3,0.7-1.9,1.9-1.9c1.1,0,1.9,0.5,1.9,1.7v10.4
	C96.3,35.8,96,36.7,94.4,36.7z"/>
<rect y="0" class="st0" width="100" height="60"/>
</svg>
